<svg xmlns="http://www.w3.org/2000/svg" viewBox="0 0 100 100" preserveAspectRatio="xMidYMid" width="800" height="800" style="shape-rendering: auto; display: block; background: rgb(255, 255, 255);" xmlns:xlink="http://www.w3.org/1999/xlink"><g><g transform="rotate(0 50 50)">
  <rect fill="#000000" height="12" width="6" ry="6" rx="3" y="9" x="47">
    <animate repeatCount="indefinite" begin="-0.9523809523809523s" dur="1s" keyTimes="0;1" values="1;0" attributeName="opacity"></animate>
  </rect>
</g><g transform="rotate(17.142857142857142 50 50)">
  <rect fill="#000000" height="12" width="6" ry="6" rx="3" y="9" x="47">
    <animate repeatCount="indefinite" begin="-0.9047619047619048s" dur="1s" keyTimes="0;1" values="1;0" attributeName="opacity"></animate>
  </rect>
</g><g transform="rotate(34.285714285714285 50 50)">
  <rect fill="#000000" height="12" width="6" ry="6" rx="3" y="9" x="47">
    <animate repeatCount="indefinite" begin="-0.8571428571428571s" dur="1s" keyTimes="0;1" values="1;0" attributeName="opacity"></animate>
  </rect>
</g><g transform="rotate(51.42857142857143 50 50)">
  <rect fill="#000000" height="12" width="6" ry="6" rx="3" y="9" x="47">
    <animate repeatCount="indefinite" begin="-0.8095238095238095s" dur="1s" keyTimes="0;1" values="1;0" attributeName="opacity"></animate>
  </rect>
</g><g transform="rotate(68.57142857142857 50 50)">
  <rect fill="#000000" height="12" width="6" ry="6" rx="3" y="9" x="47">
    <animate repeatCount="indefinite" begin="-0.7619047619047619s" dur="1s" keyTimes="0;1" values="1;0" attributeName="opacity"></animate>
  </rect>
</g><g transform="rotate(85.71428571428571 50 50)">
  <rect fill="#000000" height="12" width="6" ry="6" rx="3" y="9" x="47">
    <animate repeatCount="indefinite" begin="-0.7142857142857143s" dur="1s" keyTimes="0;1" values="1;0" attributeName="opacity"></animate>
  </rect>
</g><g transform="rotate(102.85714285714286 50 50)">
  <rect fill="#000000" height="12" width="6" ry="6" rx="3" y="9" x="47">
    <animate repeatCount="indefinite" begin="-0.6666666666666666s" dur="1s" keyTimes="0;1" values="1;0" attributeName="opacity"></animate>
  </rect>
</g><g transform="rotate(120 50 50)">
  <rect fill="#000000" height="12" width="6" ry="6" rx="3" y="9" x="47">
    <animate repeatCount="indefinite" begin="-0.6190476190476191s" dur="1s" keyTimes="0;1" values="1;0" attributeName="opacity"></animate>
  </rect>
</g><g transform="rotate(137.14285714285714 50 50)">
  <rect fill="#000000" height="12" width="6" ry="6" rx="3" y="9" x="47">
    <animate repeatCount="indefinite" begin="-0.5714285714285714s" dur="1s" keyTimes="0;1" values="1;0" attributeName="opacity"></animate>
  </rect>
</g><g transform="rotate(154.28571428571428 50 50)">
  <rect fill="#000000" height="12" width="6" ry="6" rx="3" y="9" x="47">
    <animate repeatCount="indefinite" begin="-0.5238095238095238s" dur="1s" keyTimes="0;1" values="1;0" attributeName="opacity"></animate>
  </rect>
</g><g transform="rotate(171.42857142857142 50 50)">
  <rect fill="#000000" height="12" width="6" ry="6" rx="3" y="9" x="47">
    <animate repeatCount="indefinite" begin="-0.47619047619047616s" dur="1s" keyTimes="0;1" values="1;0" attributeName="opacity"></animate>
  </rect>
</g><g transform="rotate(188.57142857142858 50 50)">
  <rect fill="#000000" height="12" width="6" ry="6" rx="3" y="9" x="47">
    <animate repeatCount="indefinite" begin="-0.42857142857142855s" dur="1s" keyTimes="0;1" values="1;0" attributeName="opacity"></animate>
  </rect>
</g><g transform="rotate(205.71428571428572 50 50)">
  <rect fill="#000000" height="12" width="6" ry="6" rx="3" y="9" x="47">
    <animate repeatCount="indefinite" begin="-0.38095238095238093s" dur="1s" keyTimes="0;1" values="1;0" attributeName="opacity"></animate>
  </rect>
</g><g transform="rotate(222.85714285714286 50 50)">
  <rect fill="#000000" height="12" width="6" ry="6" rx="3" y="9" x="47">
    <animate repeatCount="indefinite" begin="-0.3333333333333333s" dur="1s" keyTimes="0;1" values="1;0" attributeName="opacity"></animate>
  </rect>
</g><g transform="rotate(240 50 50)">
  <rect fill="#000000" height="12" width="6" ry="6" rx="3" y="9" x="47">
    <animate repeatCount="indefinite" begin="-0.2857142857142857s" dur="1s" keyTimes="0;1" values="1;0" attributeName="opacity"></animate>
  </rect>
</g><g transform="rotate(257.14285714285717 50 50)">
  <rect fill="#000000" height="12" width="6" ry="6" rx="3" y="9" x="47">
    <animate repeatCount="indefinite" begin="-0.23809523809523808s" dur="1s" keyTimes="0;1" values="1;0" attributeName="opacity"></animate>
  </rect>
</g><g transform="rotate(274.2857142857143 50 50)">
  <rect fill="#000000" height="12" width="6" ry="6" rx="3" y="9" x="47">
    <animate repeatCount="indefinite" begin="-0.19047619047619047s" dur="1s" keyTimes="0;1" values="1;0" attributeName="opacity"></animate>
  </rect>
</g><g transform="rotate(291.42857142857144 50 50)">
  <rect fill="#000000" height="12" width="6" ry="6" rx="3" y="9" x="47">
    <animate repeatCount="indefinite" begin="-0.14285714285714285s" dur="1s" keyTimes="0;1" values="1;0" attributeName="opacity"></animate>
  </rect>
</g><g transform="rotate(308.57142857142856 50 50)">
  <rect fill="#000000" height="12" width="6" ry="6" rx="3" y="9" x="47">
    <animate repeatCount="indefinite" begin="-0.09523809523809523s" dur="1s" keyTimes="0;1" values="1;0" attributeName="opacity"></animate>
  </rect>
</g><g transform="rotate(325.7142857142857 50 50)">
  <rect fill="#000000" height="12" width="6" ry="6" rx="3" y="9" x="47">
    <animate repeatCount="indefinite" begin="-0.047619047619047616s" dur="1s" keyTimes="0;1" values="1;0" attributeName="opacity"></animate>
  </rect>
</g><g transform="rotate(342.85714285714283 50 50)">
  <rect fill="#000000" height="12" width="6" ry="6" rx="3" y="9" x="47">
    <animate repeatCount="indefinite" begin="0s" dur="1s" keyTimes="0;1" values="1;0" attributeName="opacity"></animate>
  </rect>
</g><g></g></g><!-- [ldio] generated by https://loading.io --></svg>